<?xml version="1.0" standalone="no"?>
<!DOCTYPE svg PUBLIC "-//W3C//DTD SVG 20010904//EN"
 "http://www.w3.org/TR/2001/REC-SVG-20010904/DTD/svg10.dtd">
<svg version="1.0" xmlns="http://www.w3.org/2000/svg"
 width="1065.000000pt" height="1280.000000pt" viewBox="0 0 1065.000000 1280.000000"
 preserveAspectRatio="xMidYMid meet">
<metadata>
Created by potrace 1.15, written by Peter Selinger 2001-2017
</metadata>
<g transform="translate(0.000000,1280.000000) scale(0.100000,-0.100000)"
fill="white" stroke="none">
<path d="M4479 8948 c-519 -524 -1394 -1407 -1943 -1963 -550 -555 -1130
-1141 -1288 -1300 l-288 -290 263 -263 262 -262 297 297 297 298 5 -90 c3 -49
10 -490 16 -980 6 -490 15 -1153 20 -1475 5 -322 12 -838 16 -1147 l7 -563
3367 0 3367 0 6 1328 c4 730 7 1660 7 2067 l0 740 182 -183 182 -182 263 262
262 262 -987 995 c-542 548 -1214 1226 -1492 1506 -424 428 -1140 1151 -1740
1758 l-136 138 -945 -953z m2343 -1515 c767 -775 1436 -1452 1487 -1505 l92
-97 -7 -2060 -7 -2061 -2877 0 -2877 0 -7 418 c-8 504 -22 1507 -36 2502 -5
404 -12 861 -15 1015 l-6 280 191 210 c254 278 236 260 1370 1405 542 548
1052 1064 1135 1148 82 83 152 152 156 152 3 0 634 -633 1401 -1407z"/>
<path d="M4277 4760 c-19 -16 -40 -42 -46 -57 -8 -21 -11 -400 -9 -1433 l3
-1405 22 -31 c48 -67 -19 -64 1256 -64 728 0 1165 4 1188 10 19 5 48 24 65 41
l29 30 3 1420 c2 1569 7 1458 -61 1499 -31 19 -59 20 -1224 20 l-1192 0 -34
-30z m2241 -1477 l-3 -1228 -1007 -3 -1008 -2 0 1230 0 1230 1010 0 1010 0 -2
-1227z"/>
</g>
</svg>
